<?xml version="1.0" standalone="no"?>
<!DOCTYPE svg PUBLIC "-//W3C//DTD SVG 20010904//EN"
 "http://www.w3.org/TR/2001/REC-SVG-20010904/DTD/svg10.dtd">
<svg version="1.0" xmlns="http://www.w3.org/2000/svg"
 width="512.000000pt" height="512.000000pt" viewBox="0 0 512.000000 512.000000"
 preserveAspectRatio="xMidYMid meet">

<g transform="translate(0.000000,512.000000) scale(0.100000,-0.100000)"
fill="#000000" stroke="none">
<path d="M2824 4969 c-41 -21 -44 -46 -44 -364 l0 -305 -206 -2 -207 -3 -20
-27 c-13 -17 -18 -34 -13 -51 3 -15 107 -113 283 -268 439 -386 430 -379 462
-379 22 0 89 54 337 271 390 342 404 356 404 391 0 15 -9 37 -20 48 -19 19
-33 20 -225 20 l-205 0 0 314 c0 294 -1 315 -19 337 -19 24 -20 24 -263 26
-155 1 -251 -2 -264 -8z m406 -443 c0 -294 1 -315 19 -337 18 -23 27 -24 165
-29 l146 -5 -241 -212 -242 -212 -240 212 -241 212 148 5 c131 4 149 7 162 24
11 16 14 78 14 331 0 172 3 315 7 318 3 4 73 7 155 7 l148 0 0 -314z"/>
<path d="M315 3857 c-98 -46 -165 -152 -165 -258 0 -97 75 -209 168 -252 45
-21 63 -22 487 -27 l439 -5 153 -715 c84 -393 160 -734 169 -758 8 -23 31 -65
51 -93 19 -28 33 -52 31 -52 -103 -51 -149 -92 -187 -167 -85 -171 -22 -360
152 -452 l42 -23 1299 -3 c1202 -2 1300 -1 1318 14 25 23 23 76 -3 100 -20 18
-60 19 -1303 24 -977 4 -1286 8 -1302 17 -53 30 -104 116 -104 173 0 65 48
138 111 170 37 20 67 20 1292 20 798 0 1274 4 1308 10 128 24 253 120 305 235
33 72 255 1098 261 1210 9 148 -56 277 -184 366 -99 69 41 63 -1713 69 l-1585
5 -17 93 c-10 52 -26 113 -37 137 -26 59 -89 126 -148 155 l-48 25 -370 3
-370 2 -50 -23z m774 -131 c67 -35 95 -89 117 -226 l7 -41 -409 3 c-369 3
-412 5 -441 21 -90 49 -95 186 -9 238 29 18 56 19 369 19 276 0 343 -3 366
-14z m3446 -430 c97 -44 154 -127 162 -231 4 -50 -15 -152 -111 -600 -64 -297
-123 -558 -131 -581 -19 -51 -84 -117 -144 -146 l-46 -23 -1185 0 -1185 0 -50
23 c-27 13 -63 35 -78 50 -66 62 -69 76 -227 810 -82 387 -150 707 -150 712 0
7 557 10 1548 10 l1547 0 50 -24z"/>
<path d="M1889 2862 c-15 -13 -22 -30 -22 -52 0 -22 7 -39 22 -52 22 -17 70
-18 1148 -18 l1124 0 24 25 c14 13 25 33 25 45 0 12 -11 32 -25 45 l-24 25
-1124 0 c-1078 0 -1126 -1 -1148 -18z"/>
<path d="M2075 2288 c-28 -16 -35 -28 -35 -64 0 -69 -69 -64 1000 -62 l963 3
20 27 c17 23 18 31 8 56 -7 16 -24 34 -37 41 -35 16 -1891 15 -1919 -1z"/>
<path d="M2058 857 c-144 -61 -225 -191 -216 -345 8 -131 76 -235 191 -292
200 -98 431 7 493 224 43 154 -36 328 -183 401 -83 41 -203 46 -285 12z m217
-136 c74 -33 125 -114 125 -196 0 -34 -32 -110 -58 -138 -49 -54 -146 -77
-220 -53 -171 57 -192 299 -33 383 54 28 129 30 186 4z"/>
<path d="M3846 861 c-95 -39 -148 -87 -196 -181 -35 -67 -40 -195 -10 -272 29
-79 96 -150 177 -190 57 -28 77 -33 142 -33 105 0 168 24 240 91 183 169 143
457 -79 570 -74 37 -200 44 -274 15z m210 -140 c53 -24 100 -82 114 -142 47
-195 -191 -337 -340 -203 -56 50 -73 94 -68 170 3 50 10 72 33 106 58 81 169
111 261 69z"/>
</g>
</svg>
