<svg width="16" height="16" viewBox="0 0 16 16" fill="none" xmlns="http://www.w3.org/2000/svg">
<path fill-rule="evenodd" clip-rule="evenodd" d="M6.73684 1.68421C3.94635 1.68421 1.68421 3.94635 1.68421 6.73684C1.68421 9.52733 3.94635 11.7895 6.73684 11.7895C9.52733 11.7895 11.7895 9.52733 11.7895 6.73684C11.7895 3.94635 9.52733 1.68421 6.73684 1.68421ZM0 6.73684C0 3.01619 3.01619 0 6.73684 0C10.4575 0 13.4737 3.01619 13.4737 6.73684C13.4737 8.29365 12.9456 9.72712 12.0588 10.8679L15.7534 14.5624C16.0822 14.8913 16.0822 15.4245 15.7534 15.7534C15.4245 16.0822 14.8913 16.0822 14.5624 15.7534L10.8679 12.0588C9.72712 12.9456 8.29365 13.4737 6.73684 13.4737C3.01619 13.4737 0 10.4575 0 6.73684Z" fill="#D0C9D6"/>
</svg>
