<svg width="1920" height="683" viewBox="0 0 1920 683" fill="none" xmlns="http://www.w3.org/2000/svg">
<g clip-path="url(#clip0)">
<path d="M316 22C316 76.6762 268.99 121 211 121C153.01 121 106 76.6762 106 22C106 -32.6762 153.01 -77 211 -77C268.99 -77 316 -32.6762 316 22Z" fill="#249CF2" fill-opacity="0.3"/>
<path d="M843 -60C843 39.9635 754.8 121 646 121C537.2 121 449 39.9635 449 -60C449 -159.964 537.2 -241 646 -241C754.8 -241 843 -159.964 843 -60Z" fill="#249CF2" fill-opacity="0.3"/>
<path d="M1746 -60C1746 39.9635 1657.8 121 1549 121C1440.2 121 1352 39.9635 1352 -60C1352 -159.964 1440.2 -241 1549 -241C1657.8 -241 1746 -159.964 1746 -60Z" fill="#249CF2" fill-opacity="0.3"/>
<ellipse cx="1046" cy="5" rx="70" ry="65" fill="#249CF2" fill-opacity="0.3"/>
<path d="M80 258C80 293.899 48.6599 323 10 323C-28.6599 323 -60 293.899 -60 258C-60 222.101 -28.6599 193 10 193C48.6599 193 80 222.101 80 258Z" fill="#249CF2" fill-opacity="0.3"/>
<ellipse cx="1904" cy="158" rx="70" ry="65" fill="#249CF2" fill-opacity="0.3"/>
</g>
<defs>
<clipPath id="clip0">
<rect width="1920" height="683" fill="white"/>
</clipPath>
</defs>
</svg>
