<svg width="26" height="22" viewBox="0 0 26 22" fill="none" xmlns="http://www.w3.org/2000/svg">
<path d="M22.2308 1H3.76923C2.23983 1 1 2.23983 1 3.76923V18.5385C1 20.0679 2.23983 21.3077 3.76923 21.3077H22.2308C23.7602 21.3077 25 20.0679 25 18.5385V3.76923C25 2.23983 23.7602 1 22.2308 1Z" stroke="#636366" stroke-linejoin="round"/>
<path d="M17.6152 8.38469C18.6348 8.38469 19.4614 7.55814 19.4614 6.53854C19.4614 5.51893 18.6348 4.69238 17.6152 4.69238C16.5956 4.69238 15.769 5.51893 15.769 6.53854C15.769 7.55814 16.5956 8.38469 17.6152 8.38469Z" stroke="#636366" stroke-miterlimit="10"/>
<path d="M15.7692 15.7572L10.5388 10.5367C10.206 10.2039 9.75868 10.0108 9.28825 9.9969C8.81782 9.98296 8.35983 10.1492 8.00788 10.4617L1 16.6924" stroke="#636366" stroke-linecap="round" stroke-linejoin="round"/>
<path d="M11.1538 21.3077L18.2696 14.1919C18.595 13.8659 19.0306 13.6732 19.4908 13.6519C19.9509 13.6305 20.4025 13.782 20.7567 14.0766L25 17.6154" stroke="#636366" stroke-linecap="round" stroke-linejoin="round"/>
</svg>
