<?xml version="1.0" standalone="no"?>
<!DOCTYPE svg PUBLIC "-//W3C//DTD SVG 20010904//EN"
 "http://www.w3.org/TR/2001/REC-SVG-20010904/DTD/svg10.dtd">
<svg version="1.0" xmlns="http://www.w3.org/2000/svg"
 width="512.000000pt" height="512.000000pt" viewBox="0 0 512.000000 512.000000"
 preserveAspectRatio="xMidYMid meet">

<g transform="translate(0.000000,512.000000) scale(0.100000,-0.100000)"
fill="#249CF2" stroke="none">
<path d="M2380 4420 c-315 -43 -595 -172 -832 -382 -179 -158 -349 -423 -421
-653 -189 -604 -6 -1213 572 -1910 232 -278 787 -785 861 -785 74 0 622 499
861 785 637 760 802 1470 489 2110 -206 422 -588 717 -1055 815 -114 24 -369
35 -475 20z m437 -149 c417 -81 765 -342 955 -718 214 -420 203 -865 -32
-1348 -153 -314 -356 -582 -699 -926 -182 -182 -459 -429 -480 -429 -3 0 -67
50 -141 112 -163 134 -524 493 -642 638 -294 361 -471 690 -546 1015 -162 694
231 1395 906 1614 77 25 210 53 312 65 70 8 270 -4 367 -23z"/>
<path d="M2394 3580 c-231 -60 -406 -226 -481 -455 -36 -112 -38 -275 -4 -385
68 -221 226 -386 441 -462 56 -20 84 -23 210 -22 131 0 152 2 218 26 106 38
176 83 257 163 82 82 135 169 172 280 22 68 26 97 26 200 0 103 -4 132 -26
200 -75 228 -254 397 -483 455 -99 26 -233 26 -330 0z m301 -135 c193 -51 348
-215 390 -412 18 -86 18 -130 0 -218 -22 -104 -67 -187 -144 -265 -212 -215
-548 -216 -762 -1 -76 76 -122 161 -144 266 -18 88 -18 132 0 220 40 192 190
352 380 406 76 22 203 24 280 4z"/>
</g>
</svg>
